/* XPM */
static char * icon_xpm[] = {
"48 48 135 2",
"  	c None",
". 	c #FFFFFF",
"+ 	c #FFFDFB",
"@ 	c #FEEDDA",
"# 	c #FDE3C4",
"$ 	c #FEF2E5",
"% 	c #FFFFFE",
"& 	c #FEF6EC",
"* 	c #FDE4C6",
"= 	c #FDEBD5",
"- 	c #FFFBF7",
"; 	c #FDE3C5",
"> 	c #F9AA4D",
", 	c #F79724",
"' 	c #F7941E",
") 	c #F79928",
"! 	c #FAC17D",
"~ 	c #FFF9F3",
"{ 	c #FEF8F1",
"] 	c #FABD74",
"^ 	c #F89E33",
"/ 	c #F79520",
"( 	c #F9A94B",
"_ 	c #FDE6CB",
": 	c #FFFCF9",
"< 	c #FBC483",
"[ 	c #F7941F",
"} 	c #F89F35",
"| 	c #FDE8CF",
"1 	c #FDE4C7",
"2 	c #F8A038",
"3 	c #F8A33E",
"4 	c #FABC73",
"5 	c #FABC72",
"6 	c #F89B2C",
"7 	c #F89F36",
"8 	c #FEF7EF",
"9 	c #FDE9D0",
"0 	c #F79723",
"a 	c #F79826",
"b 	c #F9B360",
"c 	c #FBC381",
"d 	c #F9A848",
"e 	c #FCD5A6",
"f 	c #FDE2C3",
"g 	c #FABF78",
"h 	c #FFFCFA",
"i 	c #FBC688",
"j 	c #FBCE99",
"k 	c #F8A644",
"l 	c #F8A13A",
"m 	c #FEECD6",
"n 	c #FEEDD8",
"o 	c #F79A2A",
"p 	c #F8A138",
"q 	c #FFFEFD",
"r 	c #F9B35F",
"s 	c #F8A43F",
"t 	c #FFFEFC",
"u 	c #F8A542",
"v 	c #F9AC50",
"w 	c #FCD19F",
"x 	c #FDE2C2",
"y 	c #FDDFBC",
"z 	c #F8A139",
"A 	c #FABA6D",
"B 	c #FEF5EB",
"C 	c #F79827",
"D 	c #FCD3A2",
"E 	c #FFFCF8",
"F 	c #FBC584",
"G 	c #F8A440",
"H 	c #FEF4E7",
"I 	c #FEEDD9",
"J 	c #F9B059",
"K 	c #FAB665",
"L 	c #FEF0E0",
"M 	c #F8A645",
"N 	c #FDE0BD",
"O 	c #FEF1E1",
"P 	c #F8A33D",
"Q 	c #FAC27E",
"R 	c #FDE5C8",
"S 	c #F9AB4F",
"T 	c #FAB666",
"U 	c #FCD8AC",
"V 	c #FCDDB7",
"W 	c #FBCB92",
"X 	c #FEEEDB",
"Y 	c #FABB71",
"Z 	c #F9A94A",
"` 	c #FABE77",
" .	c #FDDFBB",
"..	c #F8A746",
"+.	c #F9AE55",
"@.	c #FABB70",
"#.	c #FCD5A8",
"$.	c #FDEAD4",
"%.	c #FCDDB8",
"&.	c #F79929",
"*.	c #FEF2E4",
"=.	c #FCD7AB",
"-.	c #FCD6A9",
";.	c #FCD9B0",
">.	c #FFFAF4",
",.	c #F89C2E",
"'.	c #F9AF56",
").	c #FFF9F2",
"!.	c #FEF7EE",
"~.	c #F9A949",
"{.	c #FAB767",
"].	c #FCD4A4",
"^.	c #FCD9AF",
"/.	c #FABB6F",
"(.	c #F8A23C",
"_.	c #FBCA8F",
":.	c #FCDCB5",
"<.	c #FBCD95",
"[.	c #FCDBB4",
"}.	c #FEF2E3",
"|.	c #F89B2D",
"1.	c #FBC98E",
"2.	c #F79521",
"3.	c #FBC88B",
"4.	c #F9B35E",
"5.	c #FDE7CC",
"6.	c #FCD2A0",
"7.	c #FFFAF5",
"8.	c #FDE7CD",
"9.	c #FCD3A1",
"0.	c #FBCC93",
"a.	c #FCDAB0",
"b.	c #FEF0DF",
"c.	c #FBCB91",
"d.	c #FDE2C1",
"  . . . . . . . . . . . . . . . . . . . . . . . . . . . . . . . . . . . . . . . . . . . . . .   ",
". . . . . . . . . . . . . . . . . . . . . . . . . . . . . . . . . . . . . . . . . . . . . . . . ",
". . . . . . . . . . . . . . . . . . . . . . . . . . . . . . . . . . . . . . . . . . . . . . . . ",
". . . . . . . . . . . . . . . . . . . . . . . . . . . . . . . . . . . . . . . . . . . . . . . . ",
". . . . . . . . . . . . . . . . . . . . . . . . . . . . . . . . . . . . . . . . . . . . . . . . ",
". . . . . . . . . . . . . . . . . . . . . . . . . . . . . . . . . . . . . . . . . . . . . . . . ",
". . . . . . . . . . . . . . . . . . . . . . . . . . . . . . . . . . . . . . . . . . . . . . . . ",
". . . . . . . . . . . . . . . . . . . . . . . . . . . . . . . . . . . . . . . . . . . . . . . . ",
". . . . . . . . . . . . . . . . . . . . . . . . . . . . . . . . . . . . . . . . . . . . . . . . ",
". . . . . . . . . . . . . . . . . . . . . . . . . . . . . . . . . . . . . . . . . . . . . . . . ",
". . . . . . . . . . . . . . . . . . . . . . . . . . . . . . . . . . . . . . . . . . . . . . . . ",
". . . . . . . . . . . . . . . . . . . . . . . . . . . . . . . . . . . . . . . . . . . . . . . . ",
". . . . . . . . . . . . . . . . . . . . . . . . . . . . . . . . . . . . . . . . . . . . . . . . ",
". . . . . . . . . . . . . . . . . . . . . . . . . . . . . . . . . . . . . . . . . . . . . . . . ",
". . . . . . . . . . . . . . . . . . . . . . . . . . . . . . . . . . . . . . . . . . . . . . . . ",
". . . . . . . . . . . . . . + @ # $ % . . . . . . . . . . . . & * = - . . . . . . . . . . . . . ",
". . . . . . . . . . . . ; > , ' ' ' ) ! ~ . . . . . . . { ] ^ ' ' ' / ( _ . . . . . . . . . . . ",
". . . . . . . . . . : < [ ' ' ' ' ' ' ' } | . . . . . 1 2 ' ' ' ' ' ' ' [ < . . . . . . . . . . ",
". . . . . . . . . . ] ' ' ' 3 4 5 6 ' ' ' 7 8 . . . 9 0 ' ' a b c d ' ' ' ' e . . . . . . . . . ",
". . . . . . . . . f ' ' ' g h . . h i ' ' ' j . . % k ' ' l m . . . n o ' ' p q . . . . . . . . ",
". . . . . . . . . r ' ' s t . . . . h u 0 v w . . x ' ' ' y . . . . . w ' z A B . . . . . . . . ",
". . . . . . . . + C ' ' D . . . . . . & E . . . . F ' ' G . . . . . . q H . . . . . . . . . . . ",
". . . . . . . . I ' ' ' 1 . . . . . . . . . . . . J ' ' K . . . . . . . . . . . . . . . . . . . ",
". . . . . . . . ; ' ' ' L . . . . . . . . . . . . M ' ' ! . . . . . . . . . . . . . . . . . . . ",
". . . . . . . . N ' ' ' O . . . . . . . . . . . . P ' ' Q . . . . . . . . . . . . . . . . . . . ",
". . . . . . . . | ' ' ' R . . . . . . . . . . . . S ' ' T . . . . . . . . . . . . . . . . . . . ",
". . . . . . . . 8 [ ' ' U . . . . . . V W X . . . Y ' ' Z . . . . . . : `  .: . . . . . . . . . ",
". . . . . . . . . ..' ' +.. . . . . . +.' ' @.. . #.' ' ' $.. . . . . %.' ' &.*.. . . . . . . . ",
". . . . . . . . . D ' ' ' =.. . . . -.' ' ' ;.. . >.,.' ' '.).. . . !.l ' ' > . . . . . . . . . ",
". . . . . . . . . h ~.' ' ' {.].^./.[ ' ' l h . . . e ' ' ' (._.:.<.^ ' ' ' [.. . . . . . . . . ",
". . . . . . . . . . }.( ' ' ' ' ' ' ' ' |.X . . . . . 1.2.' ' ' ' ' ' ' ' i . . . . . . . . . . ",
". . . . . . . . . . . + 3.2.' ' ' ' ' 4.m . . . . . . . 5.P ' ' ' ' ' } 6.% . . . . . . . . . . ",
". . . . . . . . . . . . . 7.8.9.0.a.I . . . . . . . . . . % b.[.c.].d.E . . . . . . . . . . . . ",
". . . . . . . . . . . . . . . . . . . . . . . . . . . . . . . . . . . . . . . . . . . . . . . . ",
". . . . . . . . . . . . . . . . . . . . . . . . . . . . . . . . . . . . . . . . . . . . . . . . ",
". . . . . . . . . . . . . . . . . . . . . . . . . . . . . . . . . . . . . . . . . . . . . . . . ",
". . . . . . . . . . . . . . . . . . . . . . . . . . . . . . . . . . . . . . . . . . . . . . . . ",
". . . . . . . . . . . . . . . . . . . . . . . . . . . . . . . . . . . . . . . . . . . . . . . . ",
". . . . . . . . . . . . . . . . . . . . . . . . . . . . . . . . . . . . . . . . . . . . . . . . ",
". . . . . . . . . . . . . . . . . . . . . . . . . . . . . . . . . . . . . . . . . . . . . . . . ",
". . . . . . . . . . . . . . . . . . . . . . . . . . . . . . . . . . . . . . . . . . . . . . . . ",
". . . . . . . . . . . . . . . . . . . . . . . . . . . . . . . . . . . . . . . . . . . . . . . . ",
". . . . . . . . . . . . . . . . . . . . . . . . . . . . . . . . . . . . . . . . . . . . . . . . ",
". . . . . . . . . . . . . . . . . . . . . . . . . . . . . . . . . . . . . . . . . . . . . . . . ",
". . . . . . . . . . . . . . . . . . . . . . . . . . . . . . . . . . . . . . . . . . . . . . . . ",
". . . . . . . . . . . . . . . . . . . . . . . . . . . . . . . . . . . . . . . . . . . . . . . . ",
". . . . . . . . . . . . . . . . . . . . . . . . . . . . . . . . . . . . . . . . . . . . . . . . ",
"  . . . . . . . . . . . . . . . . . . . . . . . . . . . . . . . . . . . . . . . . . . . . . .   "};
